<?xml version="1.0" encoding="UTF-8" standalone="no"?>
<svg
   xmlns:osb="http://www.openswatchbook.org/uri/2009/osb"
   xmlns:dc="http://purl.org/dc/elements/1.1/"
   xmlns:cc="http://creativecommons.org/ns#"
   xmlns:rdf="http://www.w3.org/1999/02/22-rdf-syntax-ns#"
   xmlns:svg="http://www.w3.org/2000/svg"
   xmlns="http://www.w3.org/2000/svg"
   xmlns:xlink="http://www.w3.org/1999/xlink"
   xmlns:sodipodi="http://sodipodi.sourceforge.net/DTD/sodipodi-0.dtd"
   xmlns:inkscape="http://www.inkscape.org/namespaces/inkscape"
   height="56.6934px"
   id="Layer_1"
   style="enable-background:new 0 0 56.6934 56.6934;"
   version="1.1"
   viewBox="0 0 56.6934 56.6934"
   width="56.6934px"
   xml:space="preserve"
   inkscape:version="0.48.4 r9939"
   sodipodi:docname="medium.svg"><metadata
     id="metadata3000"><rdf:RDF><cc:Work
         rdf:about=""><dc:format>image/svg+xml</dc:format><dc:type
           rdf:resource="http://purl.org/dc/dcmitype/StillImage" /></cc:Work></rdf:RDF></metadata><defs
     id="defs2998"><linearGradient
       id="linearGradient3943"
       osb:paint="solid"><stop
         style="stop-color:#ffffff;stop-opacity:1;"
         offset="0"
         id="stop3945" /></linearGradient><linearGradient
       id="linearGradient3919"
       osb:paint="solid"><stop
         style="stop-color:#ffffff;stop-opacity:1;"
         offset="0"
         id="stop3921" /></linearGradient><linearGradient
       id="linearGradient3895"
       osb:paint="solid"><stop
         style="stop-color:#ffffff;stop-opacity:1;"
         offset="0"
         id="stop3897" /></linearGradient><linearGradient
       id="linearGradient3871"
       osb:paint="solid"><stop
         style="stop-color:#ffffff;stop-opacity:1;"
         offset="0"
         id="stop3873" /></linearGradient><linearGradient
       inkscape:collect="always"
       xlink:href="#linearGradient3871"
       id="linearGradient3875"
       x1="0.57281986"
       y1="18.992866"
       x2="16.00472"
       y2="18.992866"
       gradientUnits="userSpaceOnUse"
       gradientTransform="matrix(0.97513924,0,0,0.98552144,2.5938867,9.7471982)" /><linearGradient
       inkscape:collect="always"
       xlink:href="#linearGradient3895"
       id="linearGradient3899"
       x1="20.3149"
       y1="28.97085"
       x2="34.1558"
       y2="28.97085"
       gradientUnits="userSpaceOnUse" /><linearGradient
       inkscape:collect="always"
       xlink:href="#linearGradient3919"
       id="linearGradient3923"
       x1="26.4859"
       y1="23.8695"
       x2="52.661"
       y2="23.8695"
       gradientUnits="userSpaceOnUse" /><linearGradient
       inkscape:collect="always"
       xlink:href="#linearGradient3943"
       id="linearGradient3947"
       x1="39.062469"
       y1="39.966329"
       x2="54.087369"
       y2="39.966329"
       gradientUnits="userSpaceOnUse"
       gradientTransform="matrix(0.96425216,0,0,0.96154069,0.62910223,-4.5245677)" /></defs><sodipodi:namedview
     pagecolor="#ffffff"
     bordercolor="#666666"
     borderopacity="1"
     objecttolerance="10"
     gridtolerance="10"
     guidetolerance="10"
     inkscape:pageopacity="0"
     inkscape:pageshadow="2"
     inkscape:window-width="1366"
     inkscape:window-height="702"
     id="namedview2996"
     showgrid="false"
     inkscape:zoom="4.29"
     inkscape:cx="27.693642"
     inkscape:cy="33.044726"
     inkscape:window-x="0"
     inkscape:window-y="27"
     inkscape:window-maximized="1"
     inkscape:current-layer="Layer_1" /><path
     inkscape:connector-curvature="0"
     id="path2988"
     d="m 38.0334,42.1459 14.9494,7.4733 c 0.0265,0.0132 0.0505,0.0233 0.0713,0.0315 0.0025,-0.0216 0.0042,-0.0481 0.0042,-0.0779 V 17.7293 L 38.0334,42.1459 z" /><polygon
     id="polygon2990"
     points="36.687,40.7398 52.661,14.7827 37.0932,6.9992 26.4859,24.1613 " /><polygon
     id="polygon2992"
     points="20.3149,17.726 20.3149,33.2962 34.1558,40.2157 " /><path
     inkscape:connector-curvature="0"
     id="path2994"
     d="m 3.0002,41.4627 c 0,0.2339 0.2297,0.6053 0.4386,0.7097 l 14.917,7.4585 c 0.0274,0.0132 0.0514,0.0249 0.0721,0.0315 0.0026,-0.0216 0.0042,-0.0481 0.0042,-0.078 V 14.9816 L 3.001,7.2661 3.0002,41.4627 z" /><path
     inkscape:connector-curvature="0"
     id="path2994-3"
     d="m 3.1524658,41.275326 c 0,0.230513 0.2239895,0.596536 0.427696,0.699424 l 14.5461522,7.350512 c 0.02671,0.01301 0.05012,0.02454 0.07031,0.03105 0.0025,-0.02129 0.004,-0.04741 0.004,-0.07687 V 15.177635 L 3.153246,7.5738442 3.1524658,41.275326 z"
     style="fill:url(#linearGradient3875);fill-opacity:1.0" /><polygon
     transform="matrix(0.95565047,0,0,0.95223522,1.0581046,1.4836505)"
     id="polygon2992-8"
     points="34.1558,40.2157 20.3149,17.726 20.3149,33.2962 "
     style="fill:url(#linearGradient3899);fill-opacity:1.0" /><polygon
     transform="matrix(0.970686,0,0,0.98408126,1.1029166,0.34345625)"
     id="polygon2990-2"
     points="37.0932,6.9992 26.4859,24.1613 36.687,40.7398 52.661,14.7827 "
     style="fill:url(#linearGradient3923);fill-opacity:1.0" /><path
     inkscape:connector-curvature="0"
     id="path2988-3"
     d="m 38.295172,42.035375 14.414991,7.185882 c 0.02555,0.01269 0.04869,0.02241 0.06875,0.03029 0.0024,-0.02077 0.004,-0.04625 0.004,-0.0749 V 18.557821 L 38.295172,42.035375 z"
     style="fill:url(#linearGradient3947);fill-opacity:1.0" /></svg>