<?xml version="1.0" encoding="UTF-8" standalone="no"?>
<!-- Created with Inkscape (http://www.inkscape.org/) -->

<svg
   xmlns:dc="http://purl.org/dc/elements/1.1/"
   xmlns:cc="http://creativecommons.org/ns#"
   xmlns:rdf="http://www.w3.org/1999/02/22-rdf-syntax-ns#"
   xmlns:svg="http://www.w3.org/2000/svg"
   xmlns="http://www.w3.org/2000/svg"
   xmlns:sodipodi="http://sodipodi.sourceforge.net/DTD/sodipodi-0.dtd"
   xmlns:inkscape="http://www.inkscape.org/namespaces/inkscape"
   width="786"
   height="786"
   id="svg3094"
   version="1.1"
   inkscape:version="0.48.4 r9939"
   sodipodi:docname="New document 7">
  <defs
     id="defs3096" />
  <sodipodi:namedview
     id="base"
     pagecolor="#ffffff"
     bordercolor="#666666"
     borderopacity="1.0"
     inkscape:pageopacity="0.0"
     inkscape:pageshadow="2"
     inkscape:zoom="1"
     inkscape:cx="573.40623"
     inkscape:cy="429.902"
     inkscape:document-units="px"
     inkscape:current-layer="layer4"
     showgrid="false"
     inkscape:window-width="1366"
     inkscape:window-height="702"
     inkscape:window-x="0"
     inkscape:window-y="27"
     inkscape:window-maximized="1" />
  <metadata
     id="metadata3099">
    <rdf:RDF>
      <cc:Work
         rdf:about="">
        <dc:format>image/svg+xml</dc:format>
        <dc:type
           rdf:resource="http://purl.org/dc/dcmitype/StillImage" />
        <dc:title></dc:title>
      </cc:Work>
    </rdf:RDF>
  </metadata>
  <g
     inkscape:label="Layer 1"
     inkscape:groupmode="layer"
     id="layer1"
     transform="translate(0,-266.36218)"
     style="display:inline">
    <path
       style="fill:#c8c8c8;stroke:none;stroke-width:1px;stroke-linecap:butt;stroke-linejoin:miter;stroke-opacity:1;display:inline;fill-opacity:1"
       d="m 390.8818,871.1479 -98.14815,-84.25926 c -53.8571,-40.59817 -94.55438,-91.5362 -113.88889,-159.25926 -11.40075,-50.80821 -13.79741,-99.72083 21.2963,-140.74074 21.49925,-25.31285 51.65876,-37.63531 87.96296,-40.74074 35.94157,3.23867 71.14781,13.83053 104.62963,41.66666 24.17629,-26.08854 56.6884,-40.26877 98.14815,-41.66666 37.00296,1.07624 69.75936,13.19357 94.44444,46.29629 32.81273,49.29034 29.50346,96.67952 15.74074,143.51852 -20.40218,64.03908 -58.73324,108.3564 -103.7037,145.37037 z"
       id="path3068"
       inkscape:connector-curvature="0"
       sodipodi:nodetypes="ccccccccccc" />
  </g>
  <g
     inkscape:groupmode="layer"
     id="layer4"
     inkscape:label="Layer"
     style="display:inline">
    <path
       transform="translate(0,-266.36218)"
       style="fill:#969696;fill-opacity:1;stroke:none;stroke-width:1px;stroke-linecap:butt;stroke-linejoin:miter;stroke-opacity:1;display:inline"
       d="m 300.08278,664.19374 22.72727,0 c -0.85013,19.03511 5.52255,26.40261 16.78322,25.87413 16.196,1.72277 18.7352,-7.65061 20.27972,-17.83217 l -0.34965,-19.23077 c -1.016,-14.26304 -12.01881,-15.21036 -20.97902,-18.88112 -17.04428,-5.75703 -33.29974,-15.86529 -37.06294,-35.66433 l 0,-24.47553 c 3.93571,-14.59272 9.33827,-28.48694 32.51749,-33.91608 l 17.48251,-0.34965 c 14.67735,4.55872 27.8392,11.64329 31.46853,34.61538 l 0.34965,14.68532 -23.07692,-0.6993 -1.04895,-13.63637 c -4.82705,-10.05306 -10.71629,-10.54644 -16.43357,-12.58741 -16.9281,3.01416 -15.22665,11.85006 -18.18181,19.23077 l 0.34965,12.58741 c 2.53076,5.86571 -0.94236,11.9647 16.43356,16.08392 19.89444,6.81727 40.82652,13.99713 41.60839,42.65734 l -0.34965,22.02797 c -3.44576,31.04805 -20.39843,39.58459 -43.35664,38.11189 -21.11739,0.1624 -35.65892,-13.62971 -39.51049,-33.91609 z"
       id="path3079"
       inkscape:connector-curvature="0"
       sodipodi:nodetypes="ccccccccccccccccccccccc" />
    <path
       transform="translate(0,-266.36218)"
       style="fill:#969696;stroke:none;stroke-width:1px;stroke-linecap:butt;stroke-linejoin:miter;stroke-opacity:1;display:inline;fill-opacity:1"
       d="m 402.91883,710.96271 23.14815,0 0,-66.66666 24.07408,0 c 16.61475,-3.34428 26.28198,-16.41511 30.55555,-37.03704 l 0.92593,-26.85185 c -0.83502,-26.88055 -16.35471,-34.88081 -34.25926,-39.81482 l -45.37037,0 z"
       id="path3071"
       inkscape:connector-curvature="0"
       sodipodi:nodetypes="ccccccccc" />
  </g>
  <g
     inkscape:groupmode="layer"
     id="layer5"
     inkscape:label="Layer#1"
     style="display:inline">
    <path
       transform="translate(0,-266.36218)"
       style="fill:#c8c8c8;fill-opacity:1;stroke:none;stroke-width:1px;stroke-linecap:butt;stroke-linejoin:miter;stroke-opacity:1;display:inline"
       d="m 426.99291,563.74049 -0.92593,59.25926 17.5926,0 c 13.6921,-0.58953 14.98553,-11.09799 16.66666,-21.2963 l -0.92592,-18.51851 c 0.0559,-14.19029 -7.86562,-18.40872 -17.5926,-20.37038 z"
       id="path3073"
       inkscape:connector-curvature="0"
       sodipodi:nodetypes="ccccccc" />
  </g>
</svg>
